HIERARCHY
ROOT joint_Root
{
	OFFSET 0.0 0.0 0.0
	CHANNELS 6 Xposition Yposition Zposition Zrotation Xrotation Yrotation 
	JOINT Hips
	{
		OFFSET 4.5925 91.4895 -427.239
		CHANNELS 6 Xposition Yposition Zposition Zrotation Xrotation Yrotation 
		JOINT Spine
		{
			OFFSET 15.7357 0.0 0.0
			CHANNELS 6 Xposition Yposition Zposition Zrotation Xrotation Yrotation 
			JOINT Chest
			{
				OFFSET 8.98455 -0.406207 0.0
				CHANNELS 6 Xposition Yposition Zposition Zrotation Xrotation Yrotation 
				JOINT Neck
				{
					OFFSET 16.3773 0.0 0.0
					CHANNELS 6 Xposition Yposition Zposition Zrotation Xrotation Yrotation 
					JOINT Head
					{
						OFFSET 6.45672 0.0 0.0
						CHANNELS 6 Xposition Yposition Zposition Zrotation Xrotation Yrotation 
						End Site
						{
							OFFSET 0.0 0.0 0.0
						}
					}
				}
				JOINT Shoulder_L
				{
					OFFSET 12.9942 -0.242716 4.98039
					CHANNELS 6 Xposition Yposition Zposition Zrotation Xrotation Yrotation 
					JOINT UpperArm_L
					{
						OFFSET 5.34809 0.0 0.0
						CHANNELS 6 Xposition Yposition Zposition Zrotation Xrotation Yrotation 
						JOINT LowerArm_L
						{
							OFFSET 24.3286 1.87007e-05 0.0
							CHANNELS 6 Xposition Yposition Zposition Zrotation Xrotation Yrotation 
							JOINT Hand_L
							{
								OFFSET 22.2916 0.0 0.0
								CHANNELS 6 Xposition Yposition Zposition Zrotation Xrotation Yrotation 
								End Site
								{
									OFFSET 0.0 0.0 0.0
								}
							}
						}
					}
				}
				JOINT Shoulder_R
				{
					OFFSET 12.9945 -0.242716 -4.98039
					CHANNELS 6 Xposition Yposition Zposition Zrotation Xrotation Yrotation 
					JOINT UpperArm_R
					{
						OFFSET -5.34813 0.0 0.0
						CHANNELS 6 Xposition Yposition Zposition Zrotation Xrotation Yrotation 
						JOINT LowerArm_R
						{
							OFFSET -24.3289 0.000322201 0.0
							CHANNELS 6 Xposition Yposition Zposition Zrotation Xrotation Yrotation 
							JOINT Hand_R
							{
								OFFSET -22.2915 -0.000108084 0.0
								CHANNELS 6 Xposition Yposition Zposition Zrotation Xrotation Yrotation 
								End Site
								{
									OFFSET 0.0 0.0 0.0
								}
							}
						}
					}
				}
			}
		}
		JOINT UpperLeg_L
		{
			OFFSET -2.19248 -6.46944 0.0
			CHANNELS 6 Xposition Yposition Zposition Zrotation Xrotation Yrotation 
			JOINT LowerLeg_L
			{
				OFFSET 39.0811 0.0 -1.23785e-05
				CHANNELS 6 Xposition Yposition Zposition Zrotation Xrotation Yrotation 
				JOINT Foot_L
				{
					OFFSET 40.9854 0.0 -1.26872e-05
					CHANNELS 6 Xposition Yposition Zposition Zrotation Xrotation Yrotation 
					JOINT Toes_L
					{
						OFFSET 11.7543 0.0 0.0
						CHANNELS 6 Xposition Yposition Zposition Zrotation Xrotation Yrotation 
						End Site
						{
							OFFSET 0.0 0.0 0.0
						}
					}
				}
			}
		}
		JOINT UpperLeg_R
		{
			OFFSET -2.19251 6.46944 0.0
			CHANNELS 6 Xposition Yposition Zposition Zrotation Xrotation Yrotation 
			JOINT LowerLeg_R
			{
				OFFSET -39.0811 -0.00228153 -0.0401928
				CHANNELS 6 Xposition Yposition Zposition Zrotation Xrotation Yrotation 
				JOINT Foot_R
				{
					OFFSET -40.9854 0.0 0.0
					CHANNELS 6 Xposition Yposition Zposition Zrotation Xrotation Yrotation 
					JOINT Toes_R
					{
						OFFSET -11.7543 0.0 0.0
						CHANNELS 6 Xposition Yposition Zposition Zrotation Xrotation Yrotation 
						End Site
						{
							OFFSET 0.0 0.0 0.0
						}
					}
				}
			}
		}
	}
}
MOTION
Frames:	6
Frame Time:	0.0333333
0.000000 0.000000 0.000000 0.000000 0.000000 -0.000000 -1.739170 91.865300 -0.342291 89.514400 0.238086 2.950270 15.735700 0.000005 -0.000001 84.348400 87.188500 -84.498200 8.984550 -0.406207 -0.000000 -2.171070 -0.540606 -0.309758 16.377300 -0.000001 -0.000001 4.134460 -4.321330 3.257700 6.456720 -0.000001 -0.000000 1.638610 -3.898360 -1.827690 12.994200 -0.242716 4.980390 -84.915000 -9.707190 -62.177800 5.348090 -0.000007 -0.000001 -31.873200 -61.392500 -77.408400 24.328600 0.000019 0.000005 12.794900 13.328200 -44.572200 22.291600 -0.000001 0.000005 22.914200 5.372600 -2.067690 12.994500 -0.242716 -4.980390 94.559800 -10.861500 -67.060200 -5.348130 -0.000001 -0.000004 -39.989400 -60.774400 -85.776100 -24.328900 0.000322 -0.000009 -4.100480 -4.255910 -44.000800 -22.291500 -0.000108 -0.000004 17.735300 5.557090 -9.045110 -2.192480 -6.469440 -0.000000 -175.381000 -10.973200 -4.881100 39.081100 -0.000007 -0.000012 -0.144792 0.315508 24.651300 40.985400 -0.000006 -0.000013 -0.590772 7.126700 -66.717800 11.754300 -0.000000 0.000003 -0.000183 -0.001718 -16.642500 -2.192510 6.469440 -0.000001 177.502000 24.932600 176.393000 -39.081100 -0.002282 -0.040193 -0.069247 0.160607 24.312800 -40.985400 0.000008 0.000006 4.245160 12.086000 -68.022300 -11.754300 -0.000006 -0.000006 -0.001839 -0.026688 -17.658300
0.000000 0.000000 0.000000 0.000000 0.000000 -0.000000 -1.678240 91.877400 -0.386551 89.477600 0.020676 2.852260 15.735700 0.000005 -0.000001 84.285200 87.150600 -84.422600 8.984550 -0.406207 -0.000000 -2.096230 -0.555490 -0.284990 16.377300 -0.000001 -0.000001 4.187200 -4.463800 3.328240 6.456720 -0.000001 -0.000000 1.683840 -3.870490 -1.884690 12.994200 -0.242716 4.980390 -85.115800 -9.369440 -62.305300 5.348090 -0.000007 -0.000001 -32.146100 -61.307100 -75.311400 24.328600 0.000019 0.000005 11.476800 11.165700 -46.357000 22.291600 -0.000001 0.000005 22.939900 5.376880 -2.200770 12.994500 -0.242716 -4.980390 94.421500 -10.590900 -67.183400 -5.348130 -0.000001 -0.000004 -37.105000 -60.554000 -81.284100 -24.328900 0.000322 -0.000009 -6.154710 -6.339700 -44.315000 -22.291500 -0.000108 -0.000004 17.474600 5.551330 -8.768340 -2.192480 -6.469440 -0.000000 -175.427000 -11.010900 -4.978550 39.081100 -0.000007 -0.000012 -0.143796 0.313599 24.633300 40.985400 -0.000006 -0.000013 -0.583138 6.928630 -66.701100 11.754300 -0.000000 0.000003 -0.000185 -0.001737 -16.643200 -2.192510 6.469440 -0.000001 177.591000 24.767100 176.233000 -39.081100 -0.002282 -0.040193 -0.065501 0.152494 24.287800 -40.985400 0.000008 0.000006 4.407520 12.086400 -67.992800 -11.754300 -0.000006 -0.000006 -0.001967 -0.028308 -17.724200
0.000000 0.000000 0.000000 0.000000 0.000000 -0.000000 -1.587740 91.876600 -0.425730 89.444900 -0.211270 2.838430 15.735700 0.000005 -0.000001 84.583800 87.080900 -84.703800 8.984550 -0.406207 -0.000000 -1.954480 -0.540751 -0.249303 16.377300 -0.000001 -0.000001 4.247310 -4.555030 3.352880 6.456720 -0.000001 -0.000000 1.683020 -3.860560 -1.894050 12.994200 -0.242716 4.980390 -85.380000 -8.950210 -62.551600 5.348090 -0.000007 -0.000001 -31.888600 -60.607700 -71.683700 24.328600 0.000019 0.000005 10.437400 9.340810 -48.618800 22.291600 -0.000001 0.000005 22.899900 5.380860 -2.325370 12.994500 -0.242716 -4.980390 94.199500 -10.152100 -67.384500 -5.348130 -0.000001 -0.000004 -33.987400 -59.640200 -75.790400 -24.328900 0.000322 -0.000009 -7.818940 -7.976480 -44.695400 -22.291500 -0.000108 -0.000004 17.032100 5.544210 -8.435990 -2.192480 -6.469440 -0.000000 -175.455000 -11.170100 -5.017550 39.081100 -0.000007 -0.000012 -0.142779 0.310490 24.695500 40.985400 -0.000006 -0.000013 -0.534480 6.845090 -66.734700 11.754300 -0.000000 0.000003 -0.000191 -0.001785 -16.645000 -2.192510 6.469440 -0.000001 177.580000 24.617200 176.151000 -39.081100 -0.002282 -0.040193 -0.066630 0.154879 24.304100 -40.985400 0.000008 0.000006 4.327620 12.231400 -67.923400 -11.754300 -0.000006 -0.000006 -0.001820 -0.026437 -17.648100
0.000000 0.000000 0.000000 0.000000 0.000000 -0.000000 -1.509790 91.861100 -0.453520 89.466800 -0.407868 2.955540 15.735700 0.000005 -0.000001 85.262500 86.969100 -85.384600 8.984550 -0.406207 -0.000000 -1.725550 -0.490409 -0.251631 16.377300 -0.000001 -0.000001 4.167270 -4.587740 3.330350 6.456720 -0.000001 -0.000000 1.826680 -3.917670 -1.872390 12.994200 -0.242716 4.980390 -85.710200 -8.448430 -62.953000 5.348090 -0.000007 -0.000001 -30.811600 -59.151200 -66.386500 24.328600 0.000019 0.000005 9.949170 8.170520 -50.985800 22.291600 -0.000001 0.000005 23.053000 5.385830 -2.482520 12.994500 -0.242716 -4.980390 93.860900 -9.390820 -67.529600 -5.348130 -0.000001 -0.000004 -31.387800 -57.864100 -70.131200 -24.328900 0.000322 -0.000009 -8.567430 -8.617360 -45.152200 -22.291500 -0.000108 -0.000004 16.743800 5.537320 -8.121320 -2.192480 -6.469440 -0.000000 -175.501000 -11.367100 -4.934490 39.081100 -0.000007 -0.000012 -0.142734 0.308859 24.803400 40.985400 -0.000006 -0.000013 -0.472818 6.816460 -66.801900 11.754300 -0.000000 0.000003 -0.000181 -0.001699 -16.641800 -2.192510 6.469440 -0.000001 177.440000 24.508300 176.187000 -39.081100 -0.002282 -0.040193 -0.072239 0.166437 24.415100 -40.985400 0.000008 0.000006 4.113820 12.360900 -67.884000 -11.754300 -0.000006 -0.000006 -0.001803 -0.026226 -17.639500
0.000000 0.000000 0.000000 0.000000 0.000000 -0.000000 -1.446590 91.836700 -0.484547 89.426600 -0.470412 3.080590 15.735700 0.000005 -0.000001 85.489100 86.843600 -85.594100 8.984550 -0.406207 -0.000000 -1.473160 -0.487922 -0.216047 16.377300 -0.000001 -0.000001 3.957510 -4.586560 3.284690 6.456720 -0.000001 -0.000000 2.016350 -3.957040 -1.847540 12.994200 -0.242716 4.980390 -86.136100 -7.796710 -63.533300 5.348090 -0.000007 -0.000001 -29.648400 -56.891300 -60.165600 24.328600 0.000019 0.000005 9.758430 7.356470 -53.333000 22.291600 -0.000001 0.000005 23.046200 5.380490 -2.314190 12.994500 -0.242716 -4.980390 93.395500 -8.407730 -67.913800 -5.348130 -0.000001 -0.000004 -28.161000 -55.359500 -63.023000 -24.328900 0.000322 -0.000009 -8.901000 -8.663970 -46.110200 -22.291500 -0.000108 -0.000004 16.856100 5.529050 -7.754640 -2.192480 -6.469440 -0.000000 -175.482000 -11.360300 -4.939480 39.081100 -0.000007 -0.000012 -0.144195 0.308875 25.025200 40.985400 -0.000006 -0.000013 -0.421878 6.786510 -66.899500 11.754300 -0.000000 0.000003 -0.000188 -0.001755 -16.643900 -2.192510 6.469440 -0.000001 177.377000 24.498000 176.221000 -39.081100 -0.002282 -0.040193 -0.076958 0.175705 24.553300 -40.985400 0.000008 0.000006 3.986040 12.419200 -67.878800 -11.754300 -0.000006 -0.000006 -0.001795 -0.026119 -17.635200
0.000000 0.000000 0.000000 0.000000 0.000000 -0.000000 -1.363670 91.812800 -0.511228 89.409600 -0.509149 3.208960 15.735700 0.000005 -0.000001 85.490400 86.693500 -85.578200 8.984550 -0.406207 -0.000000 -1.173870 -0.512998 -0.180731 16.377300 -0.000001 -0.000001 3.602370 -4.496710 3.255380 6.456720 -0.000001 -0.000000 2.120750 -3.886990 -1.819320 12.994200 -0.242716 4.980390 -86.601700 -7.060960 -64.216900 5.348090 -0.000007 -0.000001 -28.531400 -53.784200 -52.917600 24.328600 0.000019 0.000005 9.815900 6.745990 -55.825300 22.291600 -0.000001 0.000005 22.816400 5.371490 -2.032690 12.994500 -0.242716 -4.980390 92.811800 -7.183320 -68.557200 -5.348130 -0.000001 -0.000004 -25.352500 -52.105900 -55.366300 -24.328900 0.000322 -0.000009 -8.992930 -8.286480 -47.672100 -22.291500 -0.000108 -0.000004 16.868100 5.516720 -7.222730 -2.192480 -6.469440 -0.000000 -175.507000 -11.338000 -4.920640 39.081100 -0.000007 -0.000012 -0.143942 0.305556 25.224500 40.985400 -0.000006 -0.000013 -0.362322 6.716970 -66.998600 11.754300 -0.000000 0.000003 -0.000188 -0.001758 -16.644000 -2.192510 6.469440 -0.000001 177.251000 24.495300 176.286000 -39.081100 -0.002282 -0.040193 -0.084674 0.191535 24.672900 -40.985400 0.000008 0.000006 3.742390 12.509500 -67.847200 -11.754300 -0.000006 -0.000006 -0.001751 -0.025556 -17.612300
